MoBL_ARMS_module2_4_allmuscles elbow_states	
version=1	
nRows=251	
nColumns=2	
inDegrees=yes	
	
# SIMM Motion File Header:	
name MoBL_ARMS_module2_4_allmuscles elbow_states	
datacolumns 2	
datarows 251	
otherdata 1	
range 4.459915349 4.707692946	
endheader	
time	elbow_flexion
4.459915349	-0.132205326
4.460341609	-0.092104275
4.460582011	-0.068802053
4.460846626	-0.042586052
4.461016342	-0.025461479
4.461138281	-0.013008663
4.461233727	-0.00317483
4.461250758	-0.001412157
4.461257963	-0.000665662
4.461259508	-0.000505555
4.461261053	-0.00034538
4.461268778	0.000456745
4.461307401	0.00448897
4.461346024	0.008543139
4.461396077	0.013819417
4.46150939	0.025847097
4.461727066	0.049263775
4.46207525	0.08755759
4.463056964	0.200958533
4.465235503	0.479941918
4.466828721	0.706320911
4.468148513	0.907108646
4.469468305	1.119126867
4.470788096	1.341637557
4.472268431	1.602774504
4.473285444	1.788757394
4.474302456	1.979719684
4.475469578	2.204574806
4.4766367	2.435069786
4.477803821	2.670755611
4.478742145	2.86369436
4.479680469	3.059457595
4.480654587	3.265431483
4.481628705	3.473979623
4.482579821	3.679859335
4.483530936	3.887778615
4.484453648	4.091243207
4.485376359	4.29627934
4.486301355	4.503227846
4.48722635	4.711443306
4.488121847	4.91407747
4.489017344	5.117639823
4.489935553	5.327193661
4.490853763	5.537481009
4.491725053	5.737587543
4.492596342	5.938163997
4.493522865	6.151863582
4.494449388	6.365903909
4.495297164	6.561964815
4.496144941	6.758173873
4.497078973	6.974433991
4.498013006	7.190728738
4.498947039	7.406976714
4.499881072	7.623136582
4.500724903	7.818280006
4.501568734	8.013259251
4.502479276	8.223414626
4.503389818	8.433294752
4.504228936	8.626424695
4.505068053	8.819265812
4.505986411	9.029949754
4.506904769	9.240238681
4.507823127	9.450098191
4.508741485	9.659528701
4.509591563	9.852974075
4.510441641	10.04601994
4.511329976	10.2473038
4.512218311	10.44812926
4.513070559	10.64034632
4.513922807	10.83212576
4.514806095	11.03041019
4.515689382	11.22821178
4.516546747	11.4197308
4.517404112	11.61078579
4.518280425	11.80556936
4.519156739	11.99986152
4.520024259	12.19170653
4.520891779	12.38306475
4.521758083	12.57365636
4.522624387	12.76375876
4.523505941	12.95669296
4.524387496	13.14911698
4.525244738	13.33573306
4.526101979	13.5218639
4.526995438	13.71532956
4.527888897	13.90826487
4.528743308	14.09226052
4.529597719	14.27576831
4.530495499	14.46805264
4.531393279	14.65979502
4.532252029	14.84268273
4.533110778	15.02507146
4.534006589	15.21478769
4.5349024	15.4039578
4.535769023	15.58643307
4.536635647	15.76839424
4.537527219	15.95504563
4.538418792	16.14115014
4.53929425	16.32334732
4.540169708	16.50501442
4.541058051	16.68880205
4.541946395	16.87204131
4.542829586	17.05366279
4.543712777	17.23473954
4.544600625	17.41621079
4.545488474	17.59712887
4.546378127	17.77784829
4.54726778	17.95800932
4.548157408	18.13759556
4.549047036	18.31662052
4.549941061	18.49595341
4.550835086	18.67471658
4.551727547	18.85258738
4.552620007	19.02988771
4.553517054	19.2075132
4.554414101	19.38455978
4.555309421	19.56067731
4.556204741	19.73621585
4.557103801	19.91189433
4.558002862	20.08698691
4.55890145	20.2613913
4.559800038	20.43520832
4.560701963	20.60906946
4.561603888	20.78233666
4.562506178	20.95506882
4.563408468	21.12720422
4.564313686	21.29928786
4.565218905	21.47076834
4.566125192	21.64183626
4.56703148	21.81229691
4.567940324	21.98261764
4.568849168	22.15232485
4.569759198	22.321628
4.570669228	22.4903132
4.571581496	22.65878212
4.572493764	22.8266272
4.573407586	22.99412204
4.574321409	23.160988
4.575237641	23.32765186
4.576153874	23.49368044
4.577071968	23.65939824
4.577990063	23.82447491
4.578910966	23.98940161
4.579831869	24.15367973
4.580755311	24.31774842
4.581678753	24.4811611
4.582605325	24.64445697
4.583531896	24.8070882
4.584461146	24.96951079
4.585390397	25.13126051
4.586322944	25.29289632
4.587255491	25.45384991
4.58819108	25.61463169
4.58912667	25.77472206
4.590065692	25.93469307
4.591004713	26.09396272
4.591947114	26.25308902
4.592889516	26.4115039
4.593835823	26.56984812
4.594782131	26.72746978
4.59573252	26.88503234
4.596682909	27.04186059
4.597637699	27.19866403
4.598592489	27.35472054
4.599552063	27.51079458
4.600511637	27.66610809
4.601476285	27.82146446
4.602440933	27.97604584
4.60341092	28.13068933
4.604380908	28.28454254
4.605356375	28.43845593
4.606331843	28.5915632
4.607313209	28.74477075
4.608294575	28.89715534
4.609281893	29.04962146
4.61026921	29.20124741
4.611262898	29.3529911
4.612256586	29.5038764
4.613257001	29.65490386
4.614257416	29.80505375
4.615265231	29.9554148
4.616273047	30.10487745
4.617288603	30.25456673
4.618304158	30.40333569
4.619328191	30.55240204
4.620352223	30.70052419
4.621385206	30.84897162
4.622418189	30.99644944
4.623460618	31.14428016
4.624503048	31.2911143
4.625555192	31.43829342
4.626607337	31.58444791
4.627669863	31.73099163
4.628732389	31.87648081
4.629805651	32.02235651
4.630878913	32.16714651
4.631963567	32.31235733
4.633048221	32.45644938
4.634145131	32.60101873
4.635242042	32.74443371
4.63635208	32.88837658
4.637462117	33.0311267
4.638586105	33.17444201
4.639710092	33.31652341
4.64084901	33.45922003
4.641987928	33.6006383
4.643142652	33.74270034
4.644297376	33.88343644
4.645468302	34.02477941
4.646639227	34.16474689
4.647827562	34.30537511
4.649015896	34.44457433
4.650222598	34.58444897
4.651429301	34.7228377
4.652655534	34.86193009
4.653881767	34.99947551
4.655129836	35.13786751
4.656377904	35.27464394
4.657649252	35.41229607
4.6589206	35.54825825
4.660216197	35.68506038
4.661511793	35.82009362
4.662834059	35.95606771
4.664156324	36.09018532
4.665478589	36.22243225
4.666800854	36.35280903
4.668211864	36.48985898
4.669622873	36.62476588
4.671033883	36.75751536
4.672444892	36.8881091
4.673855902	37.01653233
4.675266912	37.14278557
4.676819997	37.27922814
4.678373083	37.41302865
4.679926169	37.54417289
4.681479255	37.67266459
4.683032341	37.79848814
4.684585426	37.92164601
4.686138512	38.04212642
4.687691598	38.15993039
4.689745409	38.31159071
4.691385659	38.42934502
4.693025909	38.54409656
4.694666158	38.65584901
4.696908668	38.80376614
4.698766456	38.92205359
4.700624244	39.03647796
4.702482032	39.14704576
4.705135561	39.29827809
4.706414254	39.36834584
4.707692946	39.4365926
